<!DOCTYPE svg PUBLIC "-//W3C//DTD SVG 1.1//EN" "http://www.w3.org/Graphics/SVG/1.1/DTD/svg11.dtd">
<!-- Uploaded to: SVG Repo, www.svgrepo.com, Transformed by: SVG Repo Mixer Tools -->
<svg height="128px" width="128px" version="1.1" id="Layer_1" xmlns="http://www.w3.org/2000/svg" xmlns:xlink="http://www.w3.org/1999/xlink" viewBox="0 0 496.158 496.158" xml:space="preserve" fill="#000000" transform="rotate(45)">
<g id="SVGRepo_bgCarrier" stroke-width="0"/>
<g id="SVGRepo_tracerCarrier" stroke-linecap="round" stroke-linejoin="round"/>
<g id="SVGRepo_iconCarrier"> <path style="fill:#404040;" d="M248.075,0C111.07,0,0,111.062,0,248.083c0,137.005,111.07,248.075,248.075,248.075 c137.013,0,248.083-111.07,248.083-248.075C496.158,111.062,385.088,0,248.075,0z"/> <g> <path style="fill:#808080;" d="M231.296,392.67c0,11.713,7.767,71.968,17.351,71.968c9.583,0,17.352-60.255,17.352-71.968H231.296z "/> <path style="fill:#808080;" d="M249.289,73.453c-16.328,0-29.562,15.806-29.562,45.627s13.234,45.62,29.562,45.62 c16.326,0,29.56-15.798,29.56-45.62S265.616,73.453,249.289,73.453z"/> <path style="fill:#808080;" d="M249.289,31.52c-21.216,0-38.415,15.86-38.415,45.789c0,29.933,17.199,45.788,38.415,45.788 c21.217,0,38.414-15.855,38.414-45.788C287.703,47.38,270.506,31.52,249.289,31.52z"/> <path style="fill:#808080;" d="M397.453,168.828c-9.544-9.544-28.06-6.495-48.41,13.851 c-20.351,20.351-23.399,38.865-13.855,48.413c9.542,9.54,28.062,6.495,48.407-13.855 C403.947,196.886,406.994,178.364,397.453,168.828z"/> <path style="fill:#808080;" d="M383.598,323.413c-20.35-20.354-38.868-23.399-48.411-13.859 c-9.542,9.548-6.495,28.062,13.855,48.413c20.35,20.35,38.868,23.399,48.41,13.855C406.994,362.282,403.947,343.76,383.598,323.413 z"/> <path style="fill:#808080;" d="M147.113,182.679c-20.35-20.346-38.866-23.395-48.41-13.851c-9.54,9.536-6.494,28.058,13.855,48.409 c20.349,20.35,38.868,23.395,48.411,13.855C170.513,221.543,167.464,203.029,147.113,182.679z"/> <path style="fill:#808080;" d="M160.969,309.555c-9.542-9.54-28.06-6.495-48.411,13.859 c-20.349,20.347-23.395,38.868-13.855,48.409c9.544,9.544,28.06,6.495,48.41-13.855 C167.464,337.617,170.511,319.102,160.969,309.555z"/> </g> <path style="fill:#ffffff;" d="M249.289,125.338c-74.531,0-134.951,48.527-134.951,140.088c0,91.569,60.42,140.092,134.951,140.092 s134.949-48.523,134.949-140.092C384.239,173.865,323.821,125.338,249.289,125.338z"/> <path style="fill:#ffffff;" d="M249.289,137.346c-68.143,0-123.383,44.369-123.383,128.081c0,83.723,55.241,128.084,123.383,128.084 s123.382-44.361,123.382-128.084C372.671,181.715,317.431,137.346,249.289,137.346z"/> <g> <path style="fill:#808080;" d="M316.511,261.769l-32.132-42.968c-0.547-0.731-1.404-1.159-2.316-1.159h-64.26 c-0.912,0-1.771,0.428-2.316,1.159l-32.13,42.969c-0.769,1.029-0.769,2.437,0,3.466l32.13,42.965 c0.545,0.734,1.404,1.163,2.316,1.163h64.26c0.913,0,1.77-0.428,2.316-1.163l32.132-42.965 C317.28,264.206,317.28,262.799,316.511,261.769z"/> <path style="fill:#808080;" d="M332.772,166.552h-7.591c-0.692,0-1.35,0.428-1.767,1.163l-24.522,42.965 c-0.585,1.033-0.585,2.44,0,3.466l24.522,42.969c0.417,0.731,1.075,1.159,1.767,1.159h47.341 C370.948,217.676,355.951,186.902,332.772,166.552z"/> <path style="fill:#808080;" d="M201.453,209.234l-24.52-42.965c-0.419-0.734-1.073-1.163-1.767-1.163h-7.66 c-23.856,20.083-39.465,50.868-41.385,91.722h49.045c0.694,0,1.348-0.429,1.767-1.159l24.52-42.969 C202.04,211.674,202.04,210.267,201.453,209.234z"/> <path style="fill:#808080;" d="M316.511,159.593l-6.161-8.236c-18.007-9.265-38.839-14.012-61.061-14.012 c-21.358,0-41.442,4.365-58.962,12.926l-6.971,9.322c-0.769,1.025-0.769,2.437,0,3.462l32.13,42.973 c0.545,0.727,1.404,1.155,2.316,1.155h64.26c0.913,0,1.77-0.428,2.316-1.155l32.132-42.973 C317.28,162.03,317.28,160.619,316.511,159.593z"/> <path style="fill:#808080;" d="M371.81,271.142h-49.041c-0.692,0-1.347,0.428-1.765,1.155l-24.52,42.973 c-0.587,1.025-0.587,2.437,0,3.462l24.52,42.969c0.418,0.727,1.073,1.163,1.765,1.163h11.583 c22.502-20.564,36.914-51.266,38.199-91.538C372.312,271.218,372.067,271.142,371.81,271.142z"/> <path style="fill:#808080;" d="M203.863,313.824l-24.52-42.973c-0.419-0.727-1.073-1.155-1.768-1.155h-49.04 c-0.698,0-1.352,0.428-1.767,1.155l-0.723,1.27c1.412,38.941,15.141,68.889,36.596,89.297h14.934c0.694,0,1.349-0.428,1.768-1.163 l24.52-42.969C204.448,316.26,204.448,314.849,203.863,313.824z"/> <path style="fill:#808080;" d="M309.593,363.464l-28.792-42.969c-0.49-0.727-1.258-1.159-2.075-1.159h-57.587 c-0.814,0-1.585,0.432-2.073,1.159l-28.796,42.969c-0.687,1.029-0.687,2.437,0,3.462l12.683,18.927 c14.31,5.065,29.946,7.658,46.339,7.658c17.028,0,33.251-2.77,48.007-8.232l12.296-18.354 C310.283,365.901,310.283,364.493,309.593,363.464z"/> </g> </g>
</svg>